<svg xmlns="http://www.w3.org/2000/svg" width="64" height="64" enable-background="new 0 0 64 64" viewBox="0 0 64 64" id="house-cost">
  <path fill="#2B2F64" d="M63.004,41.999h-3.55v-2.53c0-0.53-0.43-0.97-0.97-0.97h-8.55v-12.84c0.28,0.05,0.56,0.08,0.84,0.05
		c0.77-0.09,1.46-0.47,1.95-1.07l0.18-0.23c1-1.24,0.8-3.07-0.44-4.09l-5.54-4.44V4.677c0-0.53-0.43-0.96-0.97-0.96h-9.77
		c-0.53,0-0.97,0.43-0.97,0.96v1.811l-7.82-6.271c-0.36-0.29-0.86-0.29-1.21,0L1.102,20.318c-1.24,1-1.44,2.83-0.43,4.11l0.17,0.2
		c0.48,0.61,1.18,0.99,1.96,1.08c0.1,0.01,0.21,0.01,0.311,0.01c0.18,0,0.35-0.01,0.52-0.04v26.961c0,0.53,0.43,0.97,0.97,0.97
		h13.781v5.93c0,0.54,0.44,0.97,0.97,0.97h3.55v2.52c0,0.54,0.43,0.97,0.97,0.97h39.131c0.54,0,0.97-0.43,0.97-0.97V42.969
		C63.974,42.429,63.544,41.999,63.004,41.999z M57.514,40.439v4.56l-5.18-4.56H57.514z M57.514,47.579v3.85l-8.12,7.14H28.442
		l-8.11-7.14v-3.85l8.11-7.14h20.951L57.514,47.579z M57.514,54.02v4.55h-5.18L57.514,54.02z M20.322,44.999v-4.56h5.19
		L20.322,44.999z M37.153,5.647h7.831v8.681l-7.831-6.281V5.647z M3.702,23.578c-0.19,0.15-0.45,0.22-0.7,0.2
		c-0.25-0.03-0.48-0.16-0.66-0.38l-0.17-0.2c-0.33-0.42-0.27-1.03,0.15-1.36L26.782,2.208l24.461,19.621
		c0.42,0.34,0.48,0.95,0.15,1.36l-0.18,0.23c-0.17,0.2-0.4,0.33-0.65,0.36c-0.25,0.03-0.51-0.05-0.71-0.21L27.393,5.558
		c-0.36-0.29-0.86-0.29-1.21,0L3.702,23.578z M18.382,39.469v12.201H5.572V24.568l21.21-17.011l21.211,17.011v13.93H19.352
		C18.822,38.499,18.382,38.939,18.382,39.469z M20.322,58.569v-4.56l5.19,4.56H20.322z M62.034,62.06H24.842v-1.55h33.642
		c0.54,0,0.97-0.43,0.97-0.97V43.939h2.58V62.06z"></path>
  <polygon fill="#54BFA0" points="25.513 40.439 20.322 44.999 20.322 40.439"></polygon>
  <polygon fill="#54BFA0" points="25.513 58.569 20.322 58.569 20.322 54.009"></polygon>
  <path fill="#3CA580" d="M62.034,43.939V62.06H24.842v-1.55h33.642c0.54,0,0.97-0.43,0.97-0.97V43.939H62.034z"></path>
  <polygon fill="#54BFA0" points="57.514 54.02 57.514 58.569 52.333 58.569"></polygon>
  <polygon fill="#54BFA0" points="57.514 40.439 57.514 44.999 52.333 40.439"></polygon>
  <path fill="#FEDC7D" d="M49.394,40.439H28.442l-8.11,7.14v3.85l8.11,7.14h20.951l8.12-7.14v-3.85L49.394,40.439z M38.923,54.839
		c-2.94,0-5.33-2.39-5.33-5.33c0-2.94,2.39-5.33,5.33-5.33c2.94,0,5.33,2.39,5.33,5.33C44.253,52.449,41.863,54.839,38.923,54.839z"></path>
  <polygon fill="#F5CD95" points="44.983 5.647 44.983 14.328 37.153 8.047 37.153 5.647"></polygon>
  <path fill="#EAEAEA" d="M51.394,23.188l-0.18,0.23c-0.17,0.2-0.4,0.33-0.65,0.36c-0.25,0.03-0.51-0.05-0.71-0.21L27.393,5.558
		c-0.36-0.29-0.86-0.29-1.21,0L3.702,23.578c-0.19,0.15-0.45,0.22-0.7,0.2c-0.25-0.03-0.48-0.16-0.66-0.38l-0.17-0.2
		c-0.33-0.42-0.27-1.03,0.15-1.36L26.782,2.208l24.461,19.621C51.664,22.168,51.724,22.778,51.394,23.188z"></path>
  <path fill="#F5CD95" d="M26.782,7.558L5.572,24.568v27.101h12.811V39.469c0-0.53,0.44-0.97,0.97-0.97h28.641v-13.93L26.782,7.558z
		 M26.782,29.948c-3.58,0-6.49-2.91-6.49-6.49c0-3.581,2.911-6.491,6.49-6.491c3.581,0,6.491,2.91,6.491,6.491
		C33.273,27.039,30.363,29.948,26.782,29.948z"></path>
  <path fill="#2B2F64" d="M26.782,16.968c-3.58,0-6.49,2.91-6.49,6.491c0,3.58,2.911,6.49,6.49,6.49c3.581,0,6.491-2.91,6.491-6.49
		C33.273,19.878,30.363,16.968,26.782,16.968z M25.813,27.898c-1.73-0.38-3.09-1.74-3.47-3.47h3.47V27.898z M25.813,22.488h-3.47
		c0.38-1.73,1.74-3.09,3.47-3.47V22.488z M27.752,27.898v-3.47h3.47C30.843,26.158,29.482,27.519,27.752,27.898z M27.752,22.488
		v-3.47c1.73,0.38,3.09,1.74,3.47,3.47H27.752z"></path>
  <path fill="#BBE1F4" d="M31.223,24.428c-0.38,1.73-1.74,3.09-3.47,3.47v-3.47H31.223z"></path>
  <path fill="#CBEAFB" d="M31.223,22.488h-3.47v-3.47C29.482,19.398,30.843,20.758,31.223,22.488z"></path>
  <path fill="#BBE1F4" d="M25.813,19.018v3.47h-3.47C22.722,20.758,24.083,19.398,25.813,19.018z"></path>
  <path fill="#CBEAFB" d="M25.813,24.428v3.47c-1.73-0.38-3.09-1.74-3.47-3.47H25.813z"></path>
  <path fill="#2B2F64" d="M38.923,44.179c-2.94,0-5.33,2.39-5.33,5.33c0,2.94,2.39,5.33,5.33,5.33c2.94,0,5.33-2.39,5.33-5.33
		C44.253,46.569,41.863,44.179,38.923,44.179z M38.923,52.899c-1.87,0-3.39-1.52-3.39-3.39s1.52-3.39,3.39-3.39s3.39,1.52,3.39,3.39
		S40.793,52.899,38.923,52.899z"></path>
  <path fill="#E0E1E0" d="M38.923,46.119c-1.87,0-3.39,1.52-3.39,3.39s1.52,3.39,3.39,3.39s3.39-1.52,3.39-3.39
		S40.793,46.119,38.923,46.119z M40.243,50.829c-0.06,0.15-0.16,0.28-0.28,0.39s-0.27,0.19-0.44,0.26
		c-0.18,0.06-0.37,0.11-0.58,0.12l-0.07,0.71c0,0.01-0.01,0.03-0.01,0.04c-0.01,0.02-0.02,0.03-0.05,0.03
		c-0.02,0.01-0.04,0.02-0.08,0.03h-0.14c-0.07,0-0.12,0-0.17-0.01c-0.04,0-0.07-0.01-0.1-0.02c-0.021-0.02-0.04-0.03-0.04-0.05
		c-0.01-0.02-0.01-0.04-0.01-0.07l0.07-0.66c-0.09-0.02-0.18-0.03-0.27-0.05c-0.08-0.02-0.15-0.05-0.22-0.07
		c-0.07-0.03-0.13-0.05-0.18-0.08c-0.05-0.03-0.08-0.05-0.11-0.08c-0.02-0.02-0.04-0.06-0.05-0.11c-0.01-0.05-0.02-0.12-0.02-0.22
		c0-0.07,0-0.13,0.01-0.18c0-0.05,0.01-0.09,0.02-0.11c0.01-0.03,0.02-0.05,0.04-0.06c0.02-0.01,0.04-0.01,0.06-0.01
		c0.03,0,0.07,0.02,0.12,0.05c0.06,0.03,0.13,0.07,0.21,0.11c0.09,0.04,0.19,0.07,0.31,0.1c0.12,0.04,0.27,0.05,0.43,0.05
		c0.26,0,0.45-0.04,0.57-0.14c0.13-0.09,0.19-0.22,0.19-0.38c0-0.1-0.03-0.19-0.08-0.26c-0.05-0.07-0.13-0.13-0.22-0.18
		c-0.09-0.05-0.19-0.09-0.3-0.13s-0.23-0.09-0.35-0.13c-0.11-0.05-0.23-0.1-0.34-0.16c-0.11-0.07-0.22-0.14-0.31-0.23
		c-0.09-0.09-0.16-0.2-0.21-0.33c-0.05-0.13-0.08-0.28-0.08-0.46c0-0.17,0.03-0.32,0.08-0.45c0.06-0.14,0.13-0.25,0.24-0.35
		c0.1-0.1,0.23-0.19,0.38-0.25c0.15-0.06,0.32-0.1,0.51-0.12l0.06-0.66c0-0.02,0.01-0.04,0.02-0.05c0.01-0.01,0.02-0.02,0.04-0.03
		c0.02-0.01,0.05-0.02,0.08-0.02c0.041-0.01,0.08-0.01,0.14-0.01c0.07,0,0.13,0,0.17,0.01c0.05,0.01,0.08,0.02,0.1,0.03
		c0.03,0.01,0.04,0.03,0.05,0.05c0.01,0.02,0.01,0.04,0.01,0.06l-0.07,0.62c0.07,0.01,0.13,0.02,0.2,0.04
		c0.07,0.01,0.13,0.03,0.19,0.05s0.11,0.05,0.16,0.07c0.05,0.02,0.08,0.04,0.1,0.06s0.03,0.04,0.04,0.06
		c0.01,0.01,0.02,0.04,0.02,0.07c0.01,0.02,0.01,0.06,0.02,0.09v0.14c0,0.06,0,0.12-0.01,0.16c0,0.05,0,0.08-0.01,0.1
		c-0.01,0.03-0.02,0.04-0.03,0.05c-0.01,0.01-0.03,0.01-0.04,0.01c-0.03,0-0.07-0.01-0.13-0.04c-0.05-0.03-0.12-0.06-0.2-0.09
		c-0.08-0.04-0.17-0.07-0.27-0.09c-0.11-0.03-0.22-0.05-0.35-0.05c-0.11,0-0.21,0.01-0.29,0.04c-0.08,0.02-0.15,0.05-0.2,0.09
		c-0.05,0.04-0.08,0.08-0.11,0.14c-0.02,0.05-0.03,0.11-0.03,0.18c0,0.1,0.02,0.19,0.08,0.26c0.05,0.07,0.13,0.13,0.22,0.18
		c0.09,0.05,0.19,0.1,0.3,0.14c0.12,0.04,0.24,0.08,0.36,0.13c0.12,0.04,0.23,0.1,0.35,0.16c0.11,0.06,0.21,0.13,0.3,0.22
		c0.09,0.09,0.17,0.2,0.22,0.32c0.06,0.13,0.08,0.28,0.08,0.46S40.313,50.669,40.243,50.829z"></path>
  <path fill="#2B2F64" d="M40.343,50.319c0,0.18-0.03,0.35-0.1,0.51c-0.06,0.15-0.16,0.28-0.28,0.39s-0.27,0.19-0.44,0.26
		c-0.18,0.06-0.37,0.11-0.58,0.12l-0.07,0.71c0,0.01-0.01,0.03-0.01,0.04c-0.01,0.02-0.02,0.03-0.05,0.03
		c-0.02,0.01-0.04,0.02-0.08,0.03h-0.14c-0.07,0-0.12,0-0.17-0.01c-0.04,0-0.07-0.01-0.1-0.02c-0.021-0.02-0.04-0.03-0.04-0.05
		c-0.01-0.02-0.01-0.04-0.01-0.07l0.07-0.66c-0.09-0.02-0.18-0.03-0.27-0.05c-0.08-0.02-0.15-0.05-0.22-0.07
		c-0.07-0.03-0.13-0.05-0.18-0.08c-0.05-0.03-0.08-0.05-0.11-0.08c-0.02-0.02-0.04-0.06-0.05-0.11c-0.01-0.05-0.02-0.12-0.02-0.22
		c0-0.07,0-0.13,0.01-0.18c0-0.05,0.01-0.09,0.02-0.11c0.01-0.03,0.02-0.05,0.04-0.06c0.02-0.01,0.04-0.01,0.06-0.01
		c0.03,0,0.07,0.02,0.12,0.05c0.06,0.03,0.13,0.07,0.21,0.11c0.09,0.04,0.19,0.07,0.31,0.1c0.12,0.04,0.27,0.05,0.43,0.05
		c0.26,0,0.45-0.04,0.57-0.14c0.13-0.09,0.19-0.22,0.19-0.38c0-0.1-0.03-0.19-0.08-0.26c-0.05-0.07-0.13-0.13-0.22-0.18
		c-0.09-0.05-0.19-0.09-0.3-0.13s-0.23-0.09-0.35-0.13c-0.11-0.05-0.23-0.1-0.34-0.16c-0.11-0.07-0.22-0.14-0.31-0.23
		c-0.09-0.09-0.16-0.2-0.21-0.33c-0.05-0.13-0.08-0.28-0.08-0.46c0-0.17,0.03-0.32,0.08-0.45c0.06-0.14,0.13-0.25,0.24-0.35
		c0.1-0.1,0.23-0.19,0.38-0.25c0.15-0.06,0.32-0.1,0.51-0.12l0.06-0.66c0-0.02,0.01-0.04,0.02-0.05c0.01-0.01,0.02-0.02,0.04-0.03
		c0.02-0.01,0.05-0.02,0.08-0.02c0.041-0.01,0.08-0.01,0.14-0.01c0.07,0,0.13,0,0.17,0.01c0.05,0.01,0.08,0.02,0.1,0.03
		c0.03,0.01,0.04,0.03,0.05,0.05c0.01,0.02,0.01,0.04,0.01,0.06l-0.07,0.62c0.07,0.01,0.13,0.02,0.2,0.04
		c0.07,0.01,0.13,0.03,0.19,0.05s0.11,0.05,0.16,0.07c0.05,0.02,0.08,0.04,0.1,0.06s0.03,0.04,0.04,0.06
		c0.01,0.01,0.02,0.04,0.02,0.07c0.01,0.02,0.01,0.06,0.02,0.09v0.14c0,0.06,0,0.12-0.01,0.16c0,0.05,0,0.08-0.01,0.1
		c-0.01,0.03-0.02,0.04-0.03,0.05c-0.01,0.01-0.03,0.01-0.04,0.01c-0.03,0-0.07-0.01-0.13-0.04c-0.05-0.03-0.12-0.06-0.2-0.09
		c-0.08-0.04-0.17-0.07-0.27-0.09c-0.11-0.03-0.22-0.05-0.35-0.05c-0.11,0-0.21,0.01-0.29,0.04c-0.08,0.02-0.15,0.05-0.2,0.09
		c-0.05,0.04-0.08,0.08-0.11,0.14c-0.02,0.05-0.03,0.11-0.03,0.18c0,0.1,0.02,0.19,0.08,0.26c0.05,0.07,0.13,0.13,0.22,0.18
		c0.09,0.05,0.19,0.1,0.3,0.14c0.12,0.04,0.24,0.08,0.36,0.13c0.12,0.04,0.23,0.1,0.35,0.16c0.11,0.06,0.21,0.13,0.3,0.22
		c0.09,0.09,0.17,0.2,0.22,0.32C40.323,49.989,40.343,50.139,40.343,50.319z"></path>
</svg>
